<svg width="42" height="42" viewBox="0 0 42 42" fill="none" xmlns="http://www.w3.org/2000/svg">
<path d="M9.46703 0.586898L9.52119 0.590406C10.5869 0.679059 11.5125 1.21061 12.3575 2.03918C13.9632 3.61317 17.4112 8.20628 17.6716 9.45626C17.9597 10.8507 17.6516 11.7564 16.7333 13.3586L16.5107 13.7534C16.0893 14.5259 16.0249 14.8448 16.1554 15.2101C18.1604 20.135 21.5819 23.5685 26.4329 25.557C26.8923 25.724 27.2392 25.6283 28.21 25.0693L28.7167 24.7817C30.0816 24.0303 30.9467 23.7928 32.2223 24.0595C33.4634 24.3205 38.0424 27.7833 39.6083 29.3928C40.4328 30.24 40.9635 31.1707 41.056 32.3108C41.1534 35.0817 37.7845 38.9833 35.7294 40.1565C33.3923 41.8344 30.4264 41.8066 27.101 40.2532C18.4048 36.6213 5.10268 23.356 1.55776 14.6389L1.34555 14.1513C-0.000499057 10.9223 0.0286677 8.13276 1.57118 6.02968C2.97867 3.69031 6.7735 0.461872 9.46703 0.586898ZM9.2973 3.57033L9.1233 3.58155C7.74083 3.76588 4.96847 6.16136 4.04522 7.68499L3.88572 7.9232C3.09036 9.2238 3.18254 11.0099 4.28988 13.4555L4.5015 13.9526C8.07268 21.9968 20.4375 34.2345 28.3 37.5195L28.733 37.7128C31.0078 38.6805 32.7298 38.6375 34.124 37.6453L34.2271 37.5788C34.6585 37.278 35.6533 36.3707 36.4196 35.4833C37.4959 34.2368 38.1055 33.0948 38.0858 32.4868C38.0643 32.2267 37.8644 31.8762 37.4792 31.4804C36.3152 30.2839 32.0817 27.0823 31.6138 26.984C31.1714 26.8915 30.8082 27.0158 29.8152 27.5891L29.3156 27.8707C27.8526 28.6626 26.8212 28.8754 25.364 28.3446C19.7169 26.0313 15.7079 22.0082 13.3786 16.2834C12.8268 14.7528 13.1238 13.6698 14.0833 11.9915L14.3119 11.5878C14.7478 10.7979 14.84 10.4628 14.7579 10.0653C14.6595 9.59313 11.4717 5.34661 10.278 4.17647C9.88268 3.78884 9.53535 3.58938 9.2754 3.56776L9.2973 3.57033Z" fill="white"/>
</svg>
