<svg width="49" height="50" viewBox="0 0 49 50" fill="none" xmlns="http://www.w3.org/2000/svg">
<path d="M48.3859 19.5312H47.6047C45.8922 19.5312 44.3617 18.5078 43.707 16.9258C43.0531 15.3453 43.4125 13.5406 44.6562 12.2969L45.2141 11.7445L38.0297 4.56016L37.4406 4.04453L36.8875 4.59687C35.6789 5.80781 33.8742 6.16563 32.2937 5.5125C30.7102 4.85703 29.6875 3.32734 29.6875 1.5625V0.78125H19.5312L18.75 0.832812V1.61406C18.75 2.96563 18.1063 4.19609 17.0352 4.98984C16.4641 2.58125 14.3 0.78125 11.7188 0.78125H10.9375V4.6875C10.9375 5.11875 10.5867 5.46875 10.1562 5.46875H7.03125C6.60078 5.46875 6.25 5.11875 6.25 4.6875V0.78125H5.46875C2.45312 0.78125 0 3.23516 0 6.25V7.8125C0 10.3695 1.16094 12.8188 3.125 14.4414V40.8094L6.76406 48.0875C7.1125 48.7852 7.81406 49.2188 8.59375 49.2188C9.37344 49.2188 10.075 48.7852 10.4234 48.0883L11.9297 45.075C13.1273 44.1328 14.7281 43.9016 16.1437 44.4875C17.7273 45.1422 18.75 46.6719 18.75 48.4375V49.2188H28.9062L29.6875 49.1672V48.3859C29.6875 46.6727 30.7102 45.143 32.293 44.4883C33.8734 43.8352 35.6773 44.193 36.9273 45.4437L37.4797 45.9898L44.6586 38.8117L45.1742 38.2227L44.6219 37.6703C43.4117 36.4602 43.0523 34.6562 43.7062 33.075C44.3617 31.4922 45.8914 30.4688 47.6562 30.4688H48.4375V20.3125L48.3859 19.5312ZM10.4547 44.5312H6.73281L5.17031 41.4062H12.0172L10.4547 44.5312ZM4.6875 14.8438H7.8125V39.8438H4.6875V14.8438ZM25 14.8438V11.7586C28.0727 11.9383 30.8633 13.1625 33.0273 15.0875L31.4789 16.6352L32.5836 17.7398L34.132 16.1922C36.057 18.3563 37.2805 21.1461 37.4609 24.2188H34.375V25.7812H37.4602C37.2805 28.8539 36.0563 31.6445 34.1312 33.8078L32.5828 32.2602L31.4781 33.3648L33.0266 34.9125C30.8625 36.8375 28.0727 38.0609 24.9992 38.2414V35.1562H23.4367V38.2375C20.4367 38.0625 17.6297 36.8922 15.4086 34.9141L16.9578 33.3648L15.8531 32.2602L14.3047 33.8086C14.225 33.718 14.1406 33.6328 14.0625 33.5398V16.4594C14.1406 16.3664 14.225 16.282 14.3055 16.1914L15.8539 17.7398L16.9586 16.6352L15.4094 15.0859C17.6305 13.1078 20.4375 11.9375 23.4375 11.7625V14.8438H25ZM12.5 39.8438H9.375V14.8438H12.5V39.8438ZM14.0625 35.8195C16.7992 38.3945 20.4016 39.8438 24.2188 39.8438C32.4039 39.8438 39.0625 33.1852 39.0625 25C39.0625 16.8148 32.4039 10.1562 24.2188 10.1562C20.9883 10.1562 17.9125 11.1961 15.3836 13.075C16.007 12.268 16.475 11.3523 16.7812 10.3805C19.0688 9.21406 21.632 8.59375 24.2188 8.59375C33.2656 8.59375 40.625 15.9539 40.625 25C40.625 34.0461 33.2656 41.4062 24.2188 41.4062C20.5344 41.4062 16.9461 40.1469 14.0625 37.8711V35.8195ZM1.5625 7.8125V6.25C1.5625 4.36328 2.90703 2.78516 4.6875 2.42266V4.6875C4.6875 5.97969 5.73906 7.03125 7.03125 7.03125H10.1562C11.4484 7.03125 12.5 5.97969 12.5 4.6875V2.42266C14.2805 2.78516 15.625 4.36328 15.625 6.25V7.8125C15.625 9.93281 14.6422 11.9539 12.9969 13.2812H4.19062C2.54531 11.9539 1.5625 9.93281 1.5625 7.8125ZM8.16172 47.3891L7.51406 46.0938H9.67344L9.02578 47.3891C8.86094 47.7188 8.32656 47.7188 8.16172 47.3891ZM46.875 28.9523C44.8305 29.2094 43.0664 30.5359 42.2625 32.4781C41.4656 34.4047 41.7664 36.5719 43.0375 38.2234L37.4445 43.8156C35.8188 42.5523 33.6359 42.2414 31.6961 43.0453C29.7656 43.8422 28.4437 45.5898 28.175 47.6562H20.2672C20.0102 45.6109 18.6836 43.8469 16.7414 43.0445C15.5492 42.5516 14.2633 42.4859 13.0672 42.8008L14.0625 40.8094V39.8219C17.0383 41.8594 20.5883 42.9688 24.2188 42.9688C34.1266 42.9688 42.1875 34.9086 42.1875 25C42.1875 15.0914 34.1266 7.03125 24.2188 7.03125C21.7859 7.03125 19.3719 7.53594 17.1492 8.48516C17.1672 8.26172 17.1875 8.03828 17.1875 7.8125V6.73594C18.8703 5.86562 20.0156 4.24375 20.2625 2.34375H28.1711C28.4281 4.38828 29.7547 6.15234 31.6969 6.95547C33.6258 7.75312 35.7961 7.45234 37.443 6.18203L43.0344 11.7734C41.7719 13.4 41.4617 15.5836 42.2641 17.5219C43.0625 19.4523 44.8102 20.775 46.8758 21.043V28.9523H46.875Z" fill="#D1B296"/>
<path d="M24.2188 5.46875C24.6502 5.46875 25 5.11897 25 4.6875C25 4.25603 24.6502 3.90625 24.2188 3.90625C23.7873 3.90625 23.4375 4.25603 23.4375 4.6875C23.4375 5.11897 23.7873 5.46875 24.2188 5.46875Z" fill="#D1B296"/>
<path d="M24.2188 46.0938C24.6502 46.0938 25 45.744 25 45.3125C25 44.881 24.6502 44.5312 24.2188 44.5312C23.7873 44.5312 23.4375 44.881 23.4375 45.3125C23.4375 45.744 23.7873 46.0938 24.2188 46.0938Z" fill="#D1B296"/>
<path d="M38.5819 38.582C38.3819 38.582 38.1819 38.6586 38.0296 38.8109C37.7241 39.1164 37.7241 39.6109 38.0296 39.9156C38.1819 40.068 38.3819 40.1445 38.5819 40.1445C38.7819 40.1445 38.9819 40.068 39.1343 39.9156C39.4397 39.6102 39.4397 39.1156 39.1343 38.8109C38.9819 38.6578 38.7819 38.582 38.5819 38.582Z" fill="#D1B296"/>
<path d="M44.5312 25.7812C44.9627 25.7812 45.3125 25.4315 45.3125 25C45.3125 24.5685 44.9627 24.2188 44.5312 24.2188C44.0998 24.2188 43.75 24.5685 43.75 25C43.75 25.4315 44.0998 25.7812 44.5312 25.7812Z" fill="#D1B296"/>
<path d="M38.5819 9.85547C38.3819 9.85547 38.1819 9.93203 38.0296 10.0844C37.7241 10.3898 37.7241 10.8844 38.0296 11.1891C38.1819 11.3414 38.3819 11.418 38.5819 11.418C38.7819 11.418 38.9819 11.3414 39.1343 11.1891C39.4397 10.8836 39.4397 10.3891 39.1343 10.0844C38.9819 9.93203 38.7819 9.85547 38.5819 9.85547Z" fill="#D1B296"/>
<path d="M18.5211 18.1978L17.4164 19.3024L22.1101 23.9962C21.9633 24.3017 21.875 24.6392 21.875 25.0001C21.875 26.2923 22.9265 27.3438 24.2187 27.3438C25.5109 27.3438 26.5625 26.2923 26.5625 25.0001C26.5625 24.6392 26.4742 24.3017 26.3273 23.9962L29.4586 20.8649L28.3539 19.7603L25.2226 22.8915C24.9172 22.7446 24.5797 22.6563 24.2187 22.6563C23.8578 22.6563 23.5203 22.7446 23.2148 22.8915L18.5211 18.1978ZM24.2187 24.2188C24.6492 24.2188 25 24.5688 25 25.0001C25 25.4313 24.6492 25.7813 24.2187 25.7813C23.7883 25.7813 23.4375 25.4313 23.4375 25.0001C23.4375 24.5688 23.7883 24.2188 24.2187 24.2188Z" fill="#D1B296"/>
</svg>
