<svg width="50" height="51" viewBox="0 0 50 51" fill="none" xmlns="http://www.w3.org/2000/svg">
<g clip-path="url(#clip0)">
<path d="M37.0968 8.96777C34.8373 8.96777 32.7129 9.55568 30.8637 10.5807H26.3991C24.7362 10.5807 23.2379 11.5687 22.5838 13.0969L21.3032 16.0841C21.0808 16.6043 20.9677 17.1532 20.9677 17.7194C20.9677 19.708 22.3345 21.354 24.1983 21.7686C24.1983 21.8033 24.1935 21.8363 24.1935 21.871V25.0968H23.3871C22.3373 25.0968 21.4501 25.7733 21.1162 26.7097H0V38H4.83871V33.1613H21.1162C21.4501 34.0977 22.3373 34.7742 23.3871 34.7742H37.0968C44.2111 34.7742 50 28.9853 50 21.871C50 14.7567 44.2111 8.96777 37.0968 8.96777ZM37.9032 13.8474V10.6216C39.3716 10.7268 40.7605 11.1131 42.0217 11.7273L40.4065 14.5251C39.6284 14.1735 38.7888 13.9356 37.9032 13.8474ZM37.0968 15.4194C40.6541 15.4194 43.5484 18.3136 43.5484 21.871C43.5484 25.4284 40.6541 28.3226 37.0968 28.3226C33.5394 28.3226 30.6452 25.4284 30.6452 21.871C30.6452 18.3136 33.5394 15.4194 37.0968 15.4194ZM45.1203 22.6775H48.3461C48.241 24.1458 47.8547 25.5347 47.2404 26.7959L44.4426 25.1807C44.7943 24.4026 45.0321 23.5631 45.1203 22.6775ZM45.1203 21.0645C45.0313 20.1789 44.7943 19.3394 44.4426 18.5613L47.2404 16.9461C47.8555 18.2073 48.241 19.5962 48.3461 21.0645H45.1203ZM46.4418 15.5434L43.6323 17.1654C43.1235 16.4613 42.5057 15.8427 41.8016 15.3347L43.4236 12.5251C44.6104 13.3316 45.6362 14.3574 46.4418 15.5434ZM22.5806 17.7194C22.5806 17.3733 22.65 17.037 22.7854 16.72L24.066 13.7332C24.4668 12.7976 25.3831 12.1936 26.3991 12.1936H28.5904C26.316 14.1951 24.7555 16.9776 24.3259 20.1211C23.3079 19.7895 22.5806 18.85 22.5806 17.7194ZM20.9677 28.3226V31.5484H7.61601C7.89362 31.0719 8.06452 30.5258 8.06452 29.9355C8.06452 29.3452 7.89362 28.7991 7.61601 28.3226H20.9677ZM1.6129 28.3226H4.83871C5.72825 28.3226 6.45161 29.046 6.45161 29.9355C6.45161 30.8251 5.72825 31.5484 4.83871 31.5484H1.6129V28.3226ZM1.6129 36.3871V33.1613H3.22581V36.3871H1.6129ZM23.3871 33.1613C22.9421 33.1613 22.5806 32.7998 22.5806 32.3549V27.5162C22.5806 27.0712 22.9421 26.7097 23.3871 26.7097H24.1935V33.1613H23.3871ZM37.0968 33.1613H25.8065V21.871C25.8065 15.9179 30.4412 11.0378 36.2903 10.6216V13.8474C32.2211 14.2542 29.0323 17.697 29.0323 21.871C29.0323 26.3179 32.6499 29.9355 37.0968 29.9355C39.7863 29.9355 42.167 28.6065 43.633 26.5758L46.4426 28.1978C44.4096 31.1913 40.979 33.1613 37.0968 33.1613Z" fill="#D1B296"/>
<path d="M41.129 17.8386H33.0645V22.6773H41.129V17.8386ZM39.5161 21.0644H34.6774V19.4515H39.5161V21.0644Z" fill="#D1B296"/>
<path d="M33.0645 24.2903H41.129V25.9032H33.0645V24.2903Z" fill="#D1B296"/>
<path d="M27.4194 29.9355H29.0323V31.5485H27.4194V29.9355Z" fill="#D1B296"/>
<path d="M12.9032 13H14.5161V14.6129H12.9032V13Z" fill="#D1B296"/>
<path d="M12.9032 16.2258H14.5161V17.8387H12.9032V16.2258Z" fill="#D1B296"/>
<path d="M14.5161 14.6128H16.129V16.2257H14.5161V14.6128Z" fill="#D1B296"/>
<path d="M11.2903 14.6128H12.9032V16.2257H11.2903V14.6128Z" fill="#D1B296"/>
<path d="M5.64514 18.6453H7.25805V20.2582H5.64514V18.6453Z" fill="#D1B296"/>
<path d="M5.64514 21.8708H7.25805V23.4838H5.64514V21.8708Z" fill="#D1B296"/>
<path d="M7.25806 20.2581H8.87096V21.871H7.25806V20.2581Z" fill="#D1B296"/>
<path d="M4.03229 20.2581H5.64519V21.871H4.03229V20.2581Z" fill="#D1B296"/>
<path d="M13.7097 34.7742H15.3226V36.3871H13.7097V34.7742Z" fill="#D1B296"/>
<path d="M13.7097 38H15.3226V39.6129H13.7097V38Z" fill="#D1B296"/>
<path d="M15.3226 36.3872H16.9355V38.0001H15.3226V36.3872Z" fill="#D1B296"/>
<path d="M12.0968 36.3872H13.7097V38.0001H12.0968V36.3872Z" fill="#D1B296"/>
<path d="M36.2903 37.1936H37.9032V38.8065H36.2903V37.1936Z" fill="#D1B296"/>
<path d="M36.2903 40.4194H37.9032V42.0323H36.2903V40.4194Z" fill="#D1B296"/>
<path d="M37.9032 38.8064H39.5161V40.4193H37.9032V38.8064Z" fill="#D1B296"/>
<path d="M34.6774 38.8064H36.2903V40.4193H34.6774V38.8064Z" fill="#D1B296"/>
</g>
<defs>
<clipPath id="clip0">
<rect width="50" height="50" fill="white" transform="translate(0 0.5)"/>
</clipPath>
</defs>
</svg>
