<svg width="49" height="49" viewBox="0 0 49 49" fill="none" xmlns="http://www.w3.org/2000/svg">
<path d="M14.6148 28.6352L13.5101 29.7398L17.2398 33.4695L25.6 23.4375L24.4 22.4375L17.1351 31.1555L14.6148 28.6352Z" fill="#D1B296"/>
<path d="M5.46875 8.09375C6.76094 8.09375 7.8125 7.04219 7.8125 5.75C7.8125 4.45781 6.76094 3.40625 5.46875 3.40625C4.17656 3.40625 3.125 4.45781 3.125 5.75C3.125 7.04219 4.17656 8.09375 5.46875 8.09375ZM5.46875 4.96875C5.89922 4.96875 6.25 5.31953 6.25 5.75C6.25 6.18047 5.89922 6.53125 5.46875 6.53125C5.03828 6.53125 4.6875 6.18047 4.6875 5.75C4.6875 5.31953 5.03828 4.96875 5.46875 4.96875Z" fill="#D1B296"/>
<path d="M11.7188 8.09375C13.0109 8.09375 14.0625 7.04219 14.0625 5.75C14.0625 4.45781 13.0109 3.40625 11.7188 3.40625C10.4266 3.40625 9.375 4.45781 9.375 5.75C9.375 7.04219 10.4266 8.09375 11.7188 8.09375ZM11.7188 4.96875C12.1492 4.96875 12.5 5.31953 12.5 5.75C12.5 6.18047 12.1492 6.53125 11.7188 6.53125C11.2883 6.53125 10.9375 6.18047 10.9375 5.75C10.9375 5.31953 11.2883 4.96875 11.7188 4.96875Z" fill="#D1B296"/>
<path d="M17.9688 8.09375C19.2609 8.09375 20.3125 7.04219 20.3125 5.75C20.3125 4.45781 19.2609 3.40625 17.9688 3.40625C16.6766 3.40625 15.625 4.45781 15.625 5.75C15.625 7.04219 16.6766 8.09375 17.9688 8.09375ZM17.9688 4.96875C18.3992 4.96875 18.75 5.31953 18.75 5.75C18.75 6.18047 18.3992 6.53125 17.9688 6.53125C17.5383 6.53125 17.1875 6.18047 17.1875 5.75C17.1875 5.31953 17.5383 4.96875 17.9688 4.96875Z" fill="#D1B296"/>
<path d="M48.4375 19.8125C48.4375 14.4758 44.2977 10.0969 39.0625 9.69609V2.625C39.0625 1.33281 38.0109 0.28125 36.7188 0.28125H2.34375C1.05156 0.28125 0 1.33281 0 2.625V46.375C0 47.6672 1.05156 48.7188 2.34375 48.7188H38.2812C40.4352 48.7188 42.1875 46.9664 42.1875 44.8125V33.0938C42.1875 32.232 41.4867 31.5312 40.625 31.5312V29.6852C45.0969 28.6227 48.4375 24.6047 48.4375 19.8125ZM46.875 19.8125C46.875 24.5508 43.0195 28.4062 38.2812 28.4062C33.543 28.4062 29.6875 24.5508 29.6875 19.8125C29.6875 15.0742 33.543 11.2188 38.2812 11.2188C43.0195 11.2188 46.875 15.0742 46.875 19.8125ZM28.2148 21.0953C28.4047 22.5891 28.9195 23.9805 29.6875 25.2V27.2813C29.6875 33.5969 25.5219 39.157 19.5312 40.8758C13.5406 39.157 9.375 33.5977 9.375 27.2813V21.2977C13.1445 20.8719 16.5562 19.8813 19.5312 18.35C22.1156 19.6812 25.0344 20.5992 28.2148 21.0953ZM28.1406 19.5016C25.1055 18.9969 22.3352 18.0859 19.9008 16.7797L19.5312 16.582L19.1617 16.7797C16.1023 18.4211 12.5219 19.4422 8.52109 19.8156L7.8125 19.8813V27.2813C7.8125 34.3727 12.5477 40.607 19.3273 42.4406L19.5312 42.4961L19.7352 42.4406C26.5148 40.6063 31.25 34.3727 31.25 27.2813V27.1234C31.7156 27.5719 32.2234 27.9758 32.768 28.3289C32.3086 35.8953 26.9375 42.2867 19.5312 44.0102C11.7023 42.1898 6.25 35.3359 6.25 27.2805V18.2461C10.9383 18.1867 15.5125 16.8875 19.5312 14.4773C22.2539 16.1117 25.2086 17.2227 28.3266 17.7984C28.2156 18.3516 28.1586 18.9219 28.1406 19.5016ZM2.34375 1.84375H36.7188C37.1492 1.84375 37.5 2.19453 37.5 2.625V9.65625H1.5625V2.625C1.5625 2.19453 1.91328 1.84375 2.34375 1.84375ZM1.5625 46.375V11.2188H32.893C31.0133 12.4016 29.5516 14.1797 28.7672 16.2906C25.6258 15.7305 22.6594 14.5961 19.9445 12.9L19.5305 12.6414L19.1164 12.9C15.1516 15.3781 10.5852 16.6875 5.91016 16.6875H4.6875V27.282C4.6875 36.1328 10.7219 43.6555 19.3617 45.575L19.5312 45.6125L19.7008 45.575C27.6406 43.8109 33.4781 37.1414 34.2711 29.1398C34.8039 29.3695 35.3625 29.5484 35.9375 29.6844V31.5312C35.0758 31.5312 34.375 32.232 34.375 33.0938V44.8125C34.375 45.6953 34.6805 46.5016 35.1766 47.1562H2.34375C1.91328 47.1562 1.5625 46.8055 1.5625 46.375ZM40.625 33.0938V34.6562H35.9375V33.0938H40.625ZM38.2812 47.1562C36.9891 47.1562 35.9375 46.1047 35.9375 44.8125V36.2188H40.625V44.8125C40.625 46.1047 39.5734 47.1562 38.2812 47.1562ZM39.0625 31.5312H37.5V29.9289C37.7586 29.9484 38.0172 29.9688 38.2812 29.9688C38.5453 29.9688 38.8039 29.9492 39.0625 29.9289V31.5312Z" fill="#D1B296"/>
<path d="M37.5 19.0312H39.0625V20.5938H37.5V19.0312Z" fill="#D1B296"/>
<path d="M40.625 19.0312H42.1875V20.5938H40.625V19.0312Z" fill="#D1B296"/>
<path d="M34.375 19.0312H35.9375V20.5938H34.375V19.0312Z" fill="#D1B296"/>
</svg>
