<svg width="50" height="50" viewBox="0 0 50 50" fill="none" xmlns="http://www.w3.org/2000/svg">
<path d="M25 14.5161C26.7791 14.5161 28.2258 13.0693 28.2258 11.2903C28.2258 9.51118 26.7791 8.06445 25 8.06445C23.2209 8.06445 21.7742 9.51118 21.7742 11.2903C21.7742 13.0693 23.2209 14.5161 25 14.5161ZM25 9.67736C25.8895 9.67736 26.6129 10.4007 26.6129 11.2903C26.6129 12.1798 25.8895 12.9032 25 12.9032C24.1104 12.9032 23.3871 12.1798 23.3871 11.2903C23.3871 10.4007 24.1104 9.67736 25 9.67736Z" fill="#D1B296"/>
<path d="M45.9678 31.4516V29.8387C45.9678 28.9492 45.2444 28.2258 44.3549 28.2258H42.742V22.5806C42.742 21.2469 41.6563 20.1613 40.3226 20.1613H38.7097C37.376 20.1613 36.2903 21.2469 36.2903 22.5806V27.1961L29.5095 15.8951C30.7066 14.7233 31.4516 13.0934 31.4516 11.2903C31.4516 8.90877 30.151 6.82885 28.2258 5.71132V2.41935C28.2258 1.08564 27.1402 0 25.8065 0H24.1936C22.8599 0 21.7742 1.08564 21.7742 2.41935V5.71132C19.8491 6.82885 18.5484 8.90798 18.5484 11.2903C18.5484 13.1178 19.3155 14.7662 20.5405 15.9412L12.4106 31.4615C12.2055 31.8525 12.0968 32.2935 12.0968 32.7361C12.0968 33.8462 12.7615 34.7983 13.7097 35.2315V37.9032H15.3226V35.4555C16.2082 35.3299 16.9784 34.783 17.3872 33.9647L21.0631 26.6129H29.6517L30.696 28.4227C30.1888 28.6944 29.8387 29.224 29.8387 29.8387V31.4516C29.8387 32.3412 30.5621 33.0645 31.4516 33.0645H36.2903V35.0113L39.5162 38.2371L42.742 35.0113V33.0645H44.3549C45.2444 33.0645 45.9678 32.3412 45.9678 31.4516ZM37.9032 28.2258V25H41.1291V28.2258H37.9032ZM38.7097 21.7742H40.3226C40.7668 21.7742 41.1291 22.1357 41.1291 22.5806V23.3871H37.9032V22.5806C37.9032 22.1357 38.2655 21.7742 38.7097 21.7742ZM35.0275 28.2258H32.4451L26.3184 17.6057C26.9976 17.4643 27.6348 17.2111 28.2168 16.8748L35.0275 28.2258ZM23.4824 21.7742L25.0508 18.637L26.8606 21.7742H23.4824ZM23.3871 2.41935C23.3871 1.97439 23.7494 1.6129 24.1936 1.6129H25.8065C26.2507 1.6129 26.6129 1.97439 26.6129 2.41935V5.05095C26.0959 4.91707 25.558 4.83871 25 4.83871C24.442 4.83871 23.9041 4.91707 23.3871 5.05095V2.41935ZM20.1613 11.2903C20.1613 8.62171 22.3314 6.45161 25 6.45161C27.6686 6.45161 29.8387 8.62171 29.8387 11.2903C29.8387 13.9589 27.6686 16.129 25 16.129C22.3314 16.129 20.1613 13.9589 20.1613 11.2903ZM15.9444 33.2437C15.7506 33.6308 15.362 33.871 14.9292 33.871H14.8454C14.2185 33.871 13.7097 33.3622 13.7097 32.7361C13.7097 32.5534 13.755 32.3719 13.8397 32.2096L21.851 16.9154C22.4362 17.2442 23.0776 17.4856 23.7573 17.6195L15.9444 33.2437ZM22.676 23.3871H24.1936V25H21.8695L22.676 23.3871ZM25.8065 25V23.3871H27.7911L28.722 25H25.8065ZM31.4508 29.8387H44.3549V31.4516H31.4516L31.4508 29.8387ZM41.1291 34.3435L39.5162 35.9564L37.9032 34.3435V33.0645H41.1291V34.3435Z" fill="#D1B296"/>
<path d="M39.5291 41.2177L38.4525 40.0178C34.7522 43.3338 29.9749 45.1613 25 45.1613C20.0388 45.1613 15.2702 43.3429 11.5734 40.0395L10.4992 41.2429C14.4921 44.8097 19.6411 46.7742 25 46.7742C30.3726 46.7742 35.5331 44.8018 39.5291 41.2177Z" fill="#D1B296"/>
<path d="M25 48.3871C19.2442 48.3871 13.7128 46.2772 9.42419 42.4458L8.34998 43.6492C12.9347 47.7445 18.8476 50 25 50C31.1677 50 37.0928 47.7338 41.6823 43.6208L40.6057 42.4194C36.312 46.2678 30.77 48.3871 25 48.3871Z" fill="#D1B296"/>
<path d="M20.2653 2.36318C20.6886 2.22497 20.9209 1.77016 20.7831 1.34685C20.6453 0.923542 20.1905 0.691215 19.7672 0.829036C19.3435 0.967251 19.1115 1.42206 19.2494 1.84537C19.3864 2.26868 19.8412 2.50101 20.2653 2.36318Z" fill="#D1B296"/>
<path d="M16.2661 3.58124C16.0967 3.16935 15.6258 2.97246 15.2139 3.14179C14.8016 3.31072 14.6047 3.78207 14.774 4.19395C14.943 4.60584 15.4143 4.80273 15.8262 4.6338C16.2385 4.46448 16.4354 3.99352 16.2661 3.58124Z" fill="#D1B296"/>
<path d="M12.604 7.9292C12.8663 7.5685 12.7863 7.06447 12.426 6.80261C12.0653 6.54036 11.5613 6.62029 11.2994 6.9806C11.0372 7.34129 11.1171 7.84533 11.4774 8.10758C11.8381 8.36944 12.3422 8.28951 12.604 7.9292Z" fill="#D1B296"/>
<path d="M9.41124 12.7185C9.83455 12.8564 10.2894 12.624 10.4276 12.2007C10.5654 11.7774 10.3331 11.3226 9.90976 11.1848C9.48645 11.047 9.03164 11.2789 8.89343 11.7026C8.75561 12.1259 8.98793 12.5807 9.41124 12.7185Z" fill="#D1B296"/>
<path d="M9.67742 16.9356C9.67742 17.381 9.31633 17.7421 8.87097 17.7421C8.42561 17.7421 8.06451 17.381 8.06451 16.9356C8.06451 16.4902 8.42561 16.1292 8.87097 16.1292C9.31633 16.1292 9.67742 16.4902 9.67742 16.9356Z" fill="#D1B296"/>
<path d="M9.41124 21.1525C8.98793 21.2903 8.75561 21.7451 8.89343 22.1684C9.03164 22.5921 9.48645 22.824 9.90976 22.6862C10.3331 22.5484 10.5654 22.0936 10.4276 21.6703C10.2894 21.247 9.83455 21.0154 9.41124 21.1525Z" fill="#D1B296"/>
<path d="M12.4253 27.0685C12.7856 26.8066 12.8655 26.3026 12.6033 25.9419C12.3414 25.5816 11.8374 25.5016 11.4767 25.7635C11.1163 26.0257 11.0364 26.5298 11.2983 26.8905C11.5605 27.25 12.0654 27.3299 12.4253 27.0685Z" fill="#D1B296"/>
<path d="M29.7347 2.36318C30.158 2.50101 30.6128 2.26868 30.7507 1.84537C30.8885 1.42206 30.6565 0.967251 30.2328 0.829036C29.8095 0.691215 29.3547 0.923542 29.2169 1.34685C29.0799 1.77016 29.3114 2.22497 29.7347 2.36318Z" fill="#D1B296"/>
<path d="M34.831 3.16127C34.4297 2.96753 33.9477 3.13567 33.754 3.53693C33.5602 3.93779 33.7284 4.42017 34.1296 4.61351C34.5305 4.80725 35.0129 4.63911 35.2062 4.23824C35.4 3.83698 35.2318 3.355 34.831 3.16127Z" fill="#D1B296"/>
<path d="M38.5226 8.10758C38.8829 7.84533 38.9628 7.34129 38.7006 6.9806C38.4387 6.62029 37.9347 6.54036 37.574 6.80261C37.2137 7.06447 37.1337 7.5685 37.396 7.9292C37.6579 8.28951 38.1619 8.36944 38.5226 8.10758Z" fill="#D1B296"/>
<path d="M40.5887 12.7185C41.012 12.5807 41.2443 12.1259 41.1065 11.7026C40.9683 11.2789 40.5135 11.047 40.0902 11.1848C39.6669 11.3226 39.4346 11.7774 39.5724 12.2007C39.7106 12.624 40.1654 12.8556 40.5887 12.7185Z" fill="#D1B296"/>
<path d="M41.9355 16.9356C41.9355 17.381 41.5744 17.7421 41.129 17.7421C40.6837 17.7421 40.3226 17.381 40.3226 16.9356C40.3226 16.4902 40.6837 16.1292 41.129 16.1292C41.5744 16.1292 41.9355 16.4902 41.9355 16.9356Z" fill="#D1B296"/>
<path d="M0 24.1936H1.6129V25.8065H0V24.1936Z" fill="#D1B296"/>
<path d="M3.22583 24.1936H4.83873V25.8065H3.22583V24.1936Z" fill="#D1B296"/>
<path d="M1.61292 22.5806H3.22582V24.1935H1.61292V22.5806Z" fill="#D1B296"/>
<path d="M1.61292 25.8064H3.22582V27.4193H1.61292V25.8064Z" fill="#D1B296"/>
<path d="M45.1613 41.9355H46.7742V43.5484H45.1613V41.9355Z" fill="#D1B296"/>
<path d="M48.3871 41.9355H50V43.5484H48.3871V41.9355Z" fill="#D1B296"/>
<path d="M46.7742 40.3225H48.3871V41.9354H46.7742V40.3225Z" fill="#D1B296"/>
<path d="M46.7742 43.5483H48.3871V45.1612H46.7742V43.5483Z" fill="#D1B296"/>
<path d="M3.22583 35.4839H4.83873V37.0968H3.22583V35.4839Z" fill="#D1B296"/>
<path d="M6.4516 35.4839H8.0645V37.0968H6.4516V35.4839Z" fill="#D1B296"/>
<path d="M4.83868 33.8711H6.45159V35.484H4.83868V33.8711Z" fill="#D1B296"/>
<path d="M4.83868 37.0967H6.45159V38.7096H4.83868V37.0967Z" fill="#D1B296"/>
<path d="M3.22583 3.22583H4.83873V4.83873H3.22583V3.22583Z" fill="#D1B296"/>
<path d="M6.4516 3.22583H8.0645V4.83873H6.4516V3.22583Z" fill="#D1B296"/>
<path d="M4.83868 1.61279H6.45159V3.2257H4.83868V1.61279Z" fill="#D1B296"/>
<path d="M4.83868 4.83862H6.45159V6.45153H4.83868V4.83862Z" fill="#D1B296"/>
<path d="M43.5484 3.22583H45.1613V4.83873H43.5484V3.22583Z" fill="#D1B296"/>
<path d="M46.7742 3.22583H48.3871V4.83873H46.7742V3.22583Z" fill="#D1B296"/>
<path d="M45.1613 1.61279H46.7742V3.2257H45.1613V1.61279Z" fill="#D1B296"/>
<path d="M45.1613 4.83862H46.7742V6.45153H45.1613V4.83862Z" fill="#D1B296"/>
</svg>
