<svg width="33" height="32" viewBox="0 0 33 32" fill="none" xmlns="http://www.w3.org/2000/svg">
<path d="M30.9516 2.06452H26.3064V0H6.996L0.5 6.496V32H26.3064V12.3871H30.9516C31.8053 12.3871 32.5 11.6924 32.5 10.8387V3.6129C32.5 2.75923 31.8053 2.06452 30.9516 2.06452ZM6.69355 1.76206V6.19355H2.26206L6.69355 1.76206ZM25.2742 30.9677H1.53226V7.22581H7.72581V1.03226H25.2742V2.06452H12.371C11.5173 2.06452 10.8226 2.75923 10.8226 3.6129V10.8387C10.8226 11.6924 11.5173 12.3871 12.371 12.3871H25.2742V30.9677ZM31.4677 10.8387C31.4677 11.1231 31.236 11.3548 30.9516 11.3548H12.371C12.0866 11.3548 11.8548 11.1231 11.8548 10.8387V3.6129C11.8548 3.32852 12.0866 3.09677 12.371 3.09677H30.9516C31.236 3.09677 31.4677 3.32852 31.4677 3.6129V10.8387Z" fill="white"/>
<path d="M16.242 4.12891H12.8871V7.22568V7.74181V10.3225H13.9194V7.74181H16.242C17.2381 7.74181 18.0484 6.93149 18.0484 5.93536C18.0484 4.93923 17.2381 4.12891 16.242 4.12891ZM16.242 6.70955H13.9194V5.16116H16.242C16.6688 5.16116 17.0162 5.50852 17.0162 5.93536C17.0162 6.3622 16.6688 6.70955 16.242 6.70955Z" fill="white"/>
<path d="M3.59677 8.25781H2.56451V9.29007H3.59677V8.25781Z" fill="white"/>
<path d="M5.66129 8.25781H4.62903V9.29007H5.66129V8.25781Z" fill="white"/>
<path d="M3.59677 10.3228H2.56451V11.355H3.59677V10.3228Z" fill="white"/>
<path d="M21.1451 4.12891H19.0806V10.3225H21.1451C22.853 10.3225 24.2419 8.93355 24.2419 7.22568C24.2419 5.51781 22.853 4.12891 21.1451 4.12891ZM21.1451 9.2902H20.1129V5.16116H21.1451C22.2837 5.16116 23.2097 6.0871 23.2097 7.22568C23.2097 8.36426 22.2837 9.2902 21.1451 9.2902Z" fill="white"/>
<path d="M25.2742 10.3225H26.3064V7.74181H29.4032V6.70955H26.3064V5.16116H30.4355V4.12891H25.2742V10.3225Z" fill="white"/>
<path d="M10.8226 15.9526V16.4218C10.8226 16.9234 10.9697 17.4096 11.2479 17.8267L12.7829 20.1291L9.68609 24.7743H6.12996C4.73332 24.7743 3.5968 25.9108 3.5968 27.3074V27.4024C3.5968 28.799 4.73332 29.9356 6.12996 29.9356C6.979 29.9356 7.76712 29.5139 8.23783 28.8073L10.2389 25.8065H16.5682L18.5687 28.8073C19.0394 29.5139 19.8275 29.9356 20.6765 29.9356C22.0732 29.9356 23.2097 28.799 23.2097 27.4024V27.3074C23.2097 25.9108 22.0732 24.7743 20.6765 24.7743H17.1204L14.0236 20.1291L15.5586 17.8267C15.8368 17.4091 15.9839 16.9234 15.9839 16.4218V15.9526C15.9839 14.556 14.8474 13.4194 13.4507 13.4194H13.3558C11.9591 13.4194 10.8226 14.556 10.8226 15.9526ZM7.379 28.2349C7.10029 28.6535 6.63319 28.9033 6.12996 28.9033C5.30261 28.9033 4.62906 28.2298 4.62906 27.4024V27.3074C4.62906 26.4801 5.30261 25.8065 6.12996 25.8065H8.99809L7.379 28.2349ZM20.6765 25.8065C21.5039 25.8065 22.1774 26.4801 22.1774 27.3074V27.4024C22.1774 28.2298 21.5039 28.9033 20.6765 28.9033C20.1733 28.9033 19.7067 28.6535 19.4275 28.2349L17.8084 25.8065H20.6765ZM15.8796 24.7743H10.9264L13.4033 21.0597L15.8796 24.7743ZM11.8549 15.9526C11.8549 15.1252 12.5284 14.4517 13.3558 14.4517H13.4507C14.2781 14.4517 14.9516 15.1252 14.9516 15.9526V16.4218C14.9516 16.719 14.8644 17.007 14.6998 17.2543L13.4033 19.1985L12.1067 17.2538C11.9421 17.007 11.8549 16.719 11.8549 16.4218V15.9526Z" fill="white"/>
<path d="M13.9194 26.8389H12.8871V27.8711H13.9194V26.8389Z" fill="white"/>
<path d="M15.9839 26.8389H14.9517V27.8711H15.9839V26.8389Z" fill="white"/>
<path d="M11.8548 26.8389H10.8225V27.8711H11.8548V26.8389Z" fill="white"/>
</svg>
