<svg width="190" height="60" viewBox="0 0 190 60" fill="none" xmlns="http://www.w3.org/2000/svg">
<path d="M73.126 24.6201H76.2144V35.4384L82.8489 24.6201H86.1431V40.8702H83.0548V30.2259L76.4203 40.8702H73.126V24.6201ZM89.5252 40.8702V24.6201H92.8424V31.0202H99.2939V24.6201H102.611V40.8702H99.2939V33.7665H92.8424V40.8702H89.5252ZM106.046 40.8702V24.6201H109.364V31.0202H115.815V24.6201H119.132V40.8702H115.815V33.7665H109.364V40.8702H106.046ZM121.881 32.8435C121.881 31.1867 122.133 29.7947 122.633 28.6675C123.002 27.839 123.513 27.0939 124.158 26.4357C124.802 25.7776 125.507 25.2895 126.274 24.968C127.296 24.5406 128.474 24.325 129.808 24.325C132.226 24.325 134.155 25.0702 135.608 26.5568C137.057 28.0471 137.781 30.1162 137.781 32.7678C137.781 35.3967 137.06 37.4545 135.623 38.9373C134.186 40.4239 132.26 41.1652 129.854 41.1652C127.418 41.1652 125.477 40.4277 124.039 38.9486C122.602 37.4734 121.881 35.4384 121.881 32.8435ZM125.29 32.7338C125.29 34.5759 125.721 35.9717 126.579 36.9249C127.437 37.8744 128.527 38.351 129.847 38.351C131.17 38.351 132.252 37.8781 133.103 36.9363C133.949 35.9906 134.372 34.5759 134.372 32.6884C134.372 30.8236 133.961 29.4315 133.133 28.5162C132.31 27.597 131.215 27.1393 129.847 27.1393C128.481 27.1393 127.38 27.6045 126.545 28.5313C125.71 29.4618 125.29 30.8614 125.29 32.7338ZM140.362 24.6201H146.913C148.213 24.6201 149.178 24.673 149.815 24.7789C150.455 24.8886 151.023 25.1118 151.527 25.4485C152.03 25.7889 152.449 26.239 152.785 26.8026C153.12 27.3662 153.288 28.0017 153.288 28.7015C153.288 29.458 153.082 30.1578 152.67 30.7895C152.259 31.425 151.698 31.8978 150.993 32.2155C151.988 32.5068 152.751 32.9986 153.288 33.6946C153.822 34.3906 154.089 35.2076 154.089 36.1495C154.089 36.8909 153.917 37.6096 153.57 38.3094C153.223 39.0092 152.751 39.569 152.148 39.9888C151.549 40.4049 150.81 40.6622 149.929 40.7606C149.38 40.8173 148.049 40.8551 145.941 40.8702H140.362V24.6201ZM143.68 27.3208V31.0656H145.845C147.13 31.0656 147.931 31.0467 148.244 31.0089C148.808 30.9446 149.254 30.7517 149.578 30.4302C149.902 30.1087 150.062 29.6888 150.062 29.1668C150.062 28.6637 149.921 28.259 149.643 27.9449C149.365 27.631 148.949 27.4419 148.4 27.3776C148.072 27.3398 147.13 27.3208 145.578 27.3208H143.68ZM143.68 33.7665V38.1241H146.745C147.935 38.1241 148.694 38.09 149.014 38.0257C149.506 37.9349 149.906 37.7193 150.215 37.3751C150.524 37.0271 150.68 36.5694 150.68 35.9906C150.68 35.4989 150.562 35.0866 150.322 34.7461C150.085 34.4057 149.738 34.1561 149.288 34.001C148.839 33.8459 147.859 33.7665 146.352 33.7665H143.68ZM170.5 40.8702H166.927L165.512 37.1708H158.943L157.582 40.8702H154.074L160.434 24.6201H163.938L170.5 40.8702ZM164.437 34.4246L162.161 28.4102L159.949 34.4246H164.437Z" fill="#FAFAFA"/>
<path d="M76.4246 17.7166H74.3986V20.8534H73.1045V16.6942H76.4246V17.7166ZM78.957 16.6942H81.1119C81.5813 16.6942 81.9326 16.8046 82.1668 17.0262C82.4001 17.248 82.5172 17.5636 82.5172 17.9732C82.5172 18.3934 82.3894 18.7225 82.1347 18.9587C81.8799 19.1959 81.4905 19.3141 80.9674 19.3141H80.257V20.8534H78.957V16.6942ZM80.257 18.4718H80.5761C80.8279 18.4718 81.0045 18.4282 81.106 18.342C81.2075 18.2559 81.2583 18.1455 81.2583 18.0109C81.2583 17.8802 81.2143 17.7698 81.1256 17.6789C81.0377 17.5878 80.8718 17.5423 80.6279 17.5423H80.257V18.4718ZM84.752 16.6942H86.1573L86.7399 18.4078L87.3109 16.6942H88.6284L87.2543 19.9066C87.142 20.1651 87.0435 20.3587 86.9595 20.4855C86.8756 20.6134 86.7517 20.7179 86.5867 20.8002C86.4218 20.8825 86.1954 20.9231 85.9075 20.9231C85.7552 20.9231 85.4928 20.9019 85.1209 20.8583V19.9995C85.3405 20.0228 85.5006 20.0344 85.6011 20.0344C85.9007 20.0344 86.0832 19.924 86.1476 19.7023L84.752 16.6942ZM95.048 20.8534H93.7539V17.7166H92.331V20.8534H91.037V16.6942H95.048V20.8534ZM101.878 20.8534H100.584V17.7166H99.1615V20.8534H97.8675V16.6942H101.878V20.8534ZM107.271 20.168H105.804L105.593 20.8534H104.27L105.849 16.6942H107.266L108.838 20.8534H107.481L107.271 20.168ZM106.997 19.2676L106.539 17.7728L106.08 19.2676H106.997ZM116.964 20.8534H115.505L114.996 19.7827C114.878 19.528 114.786 19.3693 114.72 19.3054C114.654 19.2414 114.562 19.2095 114.446 19.2095V20.8534H113.152V16.6942H114.446V18.2917C114.559 18.2859 114.646 18.2462 114.709 18.1726C114.772 18.099 114.87 17.887 115.004 17.5375C115.101 17.279 115.199 17.0931 115.298 16.9808C115.397 16.8685 115.558 16.7881 115.78 16.7387C116.004 16.6893 116.353 16.6651 116.83 16.6651V17.5423H116.764C116.543 17.5423 116.379 17.584 116.272 17.6672C116.166 17.7505 116.078 17.885 116.01 18.0719C115.94 18.2588 115.867 18.3972 115.788 18.4892C115.709 18.5812 115.601 18.6547 115.464 18.709C115.651 18.7699 115.814 18.8745 115.952 19.0227C116.092 19.1717 116.239 19.4032 116.395 19.7168L116.964 20.8534ZM119.216 18.7768C119.216 18.098 119.406 17.5694 119.787 17.1918C120.169 16.8133 120.7 16.6245 121.381 16.6245C122.079 16.6245 122.617 16.8103 122.994 17.1812C123.372 17.553 123.56 18.0738 123.56 18.7428C123.56 19.2289 123.478 19.6268 123.313 19.9375C123.149 20.2483 122.909 20.4904 122.598 20.6637C122.286 20.837 121.897 20.9231 121.432 20.9231C120.96 20.9231 120.568 20.8486 120.258 20.6995C119.949 20.5495 119.697 20.3132 119.504 19.9899C119.312 19.6675 119.216 19.2628 119.216 18.7768ZM120.51 18.7797C120.51 19.1988 120.589 19.5009 120.746 19.6839C120.904 19.8669 121.119 19.9589 121.39 19.9589C121.668 19.9589 121.885 19.8688 122.037 19.6897C122.19 19.5096 122.266 19.1882 122.266 18.7225C122.266 18.3314 122.186 18.0458 122.027 17.8657C121.867 17.6846 121.651 17.5946 121.378 17.5946C121.117 17.5946 120.906 17.6866 120.748 17.8696C120.589 18.0525 120.51 18.3565 120.51 18.7797ZM126.198 16.6942H127.907L128.558 19.225L129.211 16.6942H130.912V20.8534H129.852V17.6827L129.034 20.8534H128.074L127.258 17.6827V20.8534H126.198V16.6942ZM137.706 20.8534H136.412V17.7166H134.989V20.8534H133.695V16.6942H137.706V20.8534ZM143.099 20.168H141.631L141.421 20.8534H140.098L141.676 16.6942H143.094L144.666 20.8534H143.309L143.099 20.168ZM142.825 19.2676L142.367 17.7728L141.908 19.2676H142.825ZM147.033 16.6942H148.327V18.1464H149.744V16.6942H151.044V20.8534H149.744V19.1688H148.327V20.8534H147.033V16.6942ZM157.869 16.6942V20.8534H156.651V18.5695L155.092 20.8534H153.864V16.6942H155.087V18.9956L156.658 16.6942H157.869ZM164.699 16.6942V20.8534H163.481V18.5695L161.923 20.8534H160.694V16.6942H161.918V18.9956L163.488 16.6942H164.699ZM163.751 15.6718C163.711 15.91 163.594 16.1017 163.403 16.2479C163.212 16.3941 162.984 16.4677 162.719 16.4677C162.456 16.4677 162.228 16.3941 162.035 16.2469C161.843 16.0998 161.728 15.9081 161.69 15.6718H162.181C162.262 15.9081 162.437 16.0262 162.707 16.0262C162.996 16.0262 163.18 15.9081 163.259 15.6718H163.751Z" fill="#D1B296"/>
<path fill-rule="evenodd" clip-rule="evenodd" d="M43.7864 4L68.5074 17.9366L63.2166 21.466L32.2926 19.4751L50.2632 29.4298L44.8811 32.9592L20.6162 18.7511L25.6334 15.4932L55.8277 17.2126L38.7693 7.25789L43.7864 4Z" fill="#D1B296"/>
<path fill-rule="evenodd" clip-rule="evenodd" d="M68.5513 23.5714L68.8707 40.9242L44.7883 55.6752L20.5234 41.4672V35.5848L44.7883 49.7024L63.9447 37.8473L63.6711 32.8699L44.8795 44.4536L26.8177 34.0464L26.8634 28.2998L44.7884 38.5713L68.5513 23.5714Z" fill="#D1B296"/>
<path fill-rule="evenodd" clip-rule="evenodd" d="M20.5 25.0338V30.7352L24.6506 33.2238L24.6962 27.3415L20.5 25.0338Z" fill="#D1B296"/>
<path fill-rule="evenodd" clip-rule="evenodd" d="M44.7882 38.5713L44.8793 44.4536L63.6709 32.8699L63.9445 37.8473L44.7881 49.7024V55.6752L68.8705 40.9242L68.5511 23.5714L44.7882 38.5713Z" fill="#FAFAFA"/>
</svg>
